<svg xmlns="http://www.w3.org/2000/svg" xmlns:xlink="http://www.w3.org/1999/xlink" width="274" height="64" viewBox="0 0 274 64">
  <defs>
    <clipPath id="clip-Header_Logo">
      <rect width="274" height="64"/>
    </clipPath>
  </defs>
  <g id="Header_Logo" data-name="Header Logo" clip-path="url(#clip-Header_Logo)">
    <g id="Group_20780" data-name="Group 20780" transform="translate(623.82 -77.763)">
      <g id="Group_17053" data-name="Group 17053" transform="translate(2 -9.035)">
        <g id="Group_17043" data-name="Group 17043" transform="translate(-546.721 104.797)">
          <path id="Path_21693" data-name="Path 21693" d="M-537.7,111.877a3.94,3.94,0,0,0,1.018-2.736,3.84,3.84,0,0,0-1.386-3.078,5.526,5.526,0,0,0-3.577-1.183h-5.076v15.134h2.242v-6.587h2.447l3.6,6.587h2.3l-3.857-6.8A4.576,4.576,0,0,0-537.7,111.877Zm-6.78-6.059c0-.165.05-.216.216-.216h2.533a2.435,2.435,0,0,1,2.029.919,4.065,4.065,0,0,1,.75,2.59,4.236,4.236,0,0,1-.751,2.65,2.4,2.4,0,0,1-2.028.946h-2.533c-.163,0-.216-.054-.216-.217Z" transform="translate(546.721 -104.768)" fill="#F5F5F5"/>
          <path id="Path_21694" data-name="Path 21694" d="M-526.35,105.852a6.648,6.648,0,0,0-3.643-1.055,6.6,6.6,0,0,0-3.615,1.055,7.658,7.658,0,0,0-2.608,2.823,7.992,7.992,0,0,0-.964,3.872,8.111,8.111,0,0,0,.95,3.856,7.357,7.357,0,0,0,2.61,2.826,6.74,6.74,0,0,0,3.627,1.041,6.714,6.714,0,0,0,3.643-1.042,7.518,7.518,0,0,0,2.608-2.81,7.994,7.994,0,0,0,.964-3.871,7.983,7.983,0,0,0-.964-3.871A7.641,7.641,0,0,0-526.35,105.852Zm.668,3.09a9.464,9.464,0,0,1,.663,3.605,9.394,9.394,0,0,1-.663,3.579,6.118,6.118,0,0,1-1.8,2.518,3.941,3.941,0,0,1-2.507.9,3.879,3.879,0,0,1-2.491-.9,6.171,6.171,0,0,1-1.792-2.518,9.391,9.391,0,0,1-.662-3.579,9.462,9.462,0,0,1,.662-3.605,6.323,6.323,0,0,1,1.792-2.535,3.857,3.857,0,0,1,2.491-.915,3.914,3.914,0,0,1,2.507.916A6.243,6.243,0,0,1-525.681,108.942Z" transform="translate(549.958 -104.797)" fill="#F5F5F5"/>
          <path id="Path_21695" data-name="Path 21695" d="M-517.968,111.093l-.154.221-.068.142c-.141.186-.213.246-.22.262a1.232,1.232,0,0,1-.3-.419l-3.992-6.418h-2.3l4.7,7.575v7.559h2.242v-7.559l4.7-7.575h-.757Z" transform="translate(554.087 -104.768)" fill="#F5F5F5"/>
          <path id="Path_21696" data-name="Path 21696" d="M-509.449,104.881h-1.235l-5.534,15.134h.716l2.223-6.079h4.875l2.223,6.079h2.265L-509.408,105Zm-3.585,8.361,1.99-5.383c.1-.234.181-.285.2-.285,0,0,.114.032.287.5h0l1.908,5.168Z" transform="translate(557.07 -104.768)" fill="#F5F5F5"/>
          <path id="Path_21697" data-name="Path 21697" d="M-502.675,119.106V104.881h-2.241v15.134h8.433v-.692h-5.976C-502.624,119.322-502.675,119.272-502.675,119.106Z" transform="translate(560.905 -104.768)" fill="#F5F5F5"/>
          <path id="Path_21698" data-name="Path 21698" d="M-486.687,104.881h-1.235l-5.534,15.134h.716l2.223-6.079h4.875l2.223,6.079h2.265L-486.646,105Zm-3.585,8.361,1.99-5.383c.1-.234.181-.285.2-.285,0,0,.114.032.287.5h0l1.908,5.168Z" transform="translate(564.793 -104.768)" fill="#F5F5F5"/>
          <path id="Path_21699" data-name="Path 21699" d="M-482.155,120.015h8.435v-.692H-479.7c-.165,0-.216-.051-.216-.217v-5.657c0-.165.054-.217.216-.217h4.542v-.694H-479.7c-.165,0-.216-.05-.216-.216v-6.53c0-.166.051-.216.216-.216h5.977v-.7h-8.435Z" transform="translate(568.627 -104.768)" fill="#F5F5F5"/>
          <path id="Path_21700" data-name="Path 21700" d="M-465.454,112.758c-.655-.364-1.531-.8-2.6-1.288-.986-.446-1.757-.822-2.3-1.118a4.971,4.971,0,0,1-1.334-1.047,1.933,1.933,0,0,1-.518-1.331,2.012,2.012,0,0,1,.978-1.752,4.02,4.02,0,0,1,2.308-.688c1.8,0,3.178.946,4.207,2.889l.114.217,1.346-1.382-.091-.122c-1.138-1.523-3.024-2.3-5.6-2.3a6.97,6.97,0,0,0-3.913,1.03,3.262,3.262,0,0,0-1.584,2.837,2.773,2.773,0,0,0,.675,1.846,6.294,6.294,0,0,0,1.609,1.333c.629.372,1.466.806,2.492,1.29a18.786,18.786,0,0,1,3.22,1.8,2.29,2.29,0,0,1,1.039,1.9,2.263,2.263,0,0,1-.9,1.874,3.715,3.715,0,0,1-2.38.735,4.629,4.629,0,0,1-2.508-.747,5.242,5.242,0,0,1-1.785-1.783l-.1-.167-1.43,1,.1.146a4.851,4.851,0,0,0,2.246,1.666,9,9,0,0,0,3.388.605,8.105,8.105,0,0,0,2.936-.5,4.912,4.912,0,0,0,2.057-1.417,3.21,3.21,0,0,0,.758-2.084,3.1,3.1,0,0,0-.716-2.029A5.984,5.984,0,0,0-465.454,112.758Z" transform="translate(571.22 -104.783)" fill="#F5F5F5"/>
          <path id="Path_21701" data-name="Path 21701" d="M-465.067,105.576h4.625c.166,0,.217.05.217.216v14.223h2.242V105.792c0-.166.051-.216.216-.216h4.6v-.7h-11.9Z" transform="translate(574.425 -104.768)" fill="#F5F5F5"/>
          <path id="Path_21702" data-name="Path 21702" d="M-446.2,112.547c0,.166-.05.216-.216.216h-5.855c-.165,0-.216-.05-.216-.216v-7.666h-2.242v15.134h2.242v-6.342c0-.165.052-.217.216-.217h5.855c.163,0,.216.052.216.217v6.342h2.27V104.881h-2.27Z" transform="translate(577.933 -104.768)" fill="#F5F5F5"/>
          <path id="Path_21703" data-name="Path 21703" d="M-443.565,120.015h8.433v-.692h-5.976c-.166,0-.217-.051-.217-.217v-5.657c0-.165.054-.217.217-.217h4.54v-.694h-4.54c-.166,0-.217-.05-.217-.216v-6.53c0-.166.051-.216.217-.216h5.976v-.7h-8.433Z" transform="translate(581.72 -104.768)" fill="#F5F5F5"/>
          <path id="Path_21704" data-name="Path 21704" d="M-436.63,105.576H-432c.166,0,.216.05.216.216v14.223h2.243V105.792c0-.166.051-.216.216-.216h4.6v-.7h-11.9Z" transform="translate(584.073 -104.768)" fill="#F5F5F5"/>
          <rect id="Rectangle_6044" data-name="Rectangle 6044" width="2.243" height="15.135" transform="translate(161.292 0.112)" fill="#F5F5F5"/>
          <path id="Path_21705" data-name="Path 21705" d="M-410.635,117.168a5.086,5.086,0,0,1-1.728,1.442,4.647,4.647,0,0,1-2.158.542,4.664,4.664,0,0,1-2.657-.828,5.882,5.882,0,0,1-1.967-2.338,7.718,7.718,0,0,1-.742-3.439,9.464,9.464,0,0,1,.663-3.605,6.28,6.28,0,0,1,1.792-2.535,3.852,3.852,0,0,1,2.491-.915,3.444,3.444,0,0,1,2.183.749,3.645,3.645,0,0,1,1.276,2.016l.082.32,1.461-1.607-.119-.121a7.1,7.1,0,0,0-2.223-1.516,6.675,6.675,0,0,0-2.66-.536,6.6,6.6,0,0,0-3.615,1.055,7.657,7.657,0,0,0-2.609,2.825,8.005,8.005,0,0,0-.963,3.871,8.018,8.018,0,0,0,.963,3.872,7.473,7.473,0,0,0,2.64,2.81,6.956,6.956,0,0,0,3.725,1.041,5.864,5.864,0,0,0,2.728-.682,6.645,6.645,0,0,0,2.2-1.836l.11-.142-.762-.584Z" transform="translate(588.994 -104.797)" fill="#F5F5F5"/>
          <path id="Path_21706" data-name="Path 21706" d="M-405.1,105l-.042-.117h-1.235l-5.534,15.134h.717l2.223-6.079h4.875l2.223,6.079h2.265Zm-3.627,8.245,1.991-5.383c.1-.234.181-.285.2-.285,0,0,.115.033.287.5l1.91,5.167Z" transform="translate(592.461 -104.768)" fill="#F5F5F5"/>
        </g>
        <g id="Group_17052" data-name="Group 17052" transform="translate(-546.604 126.365)">
          <g id="Group_17048" data-name="Group 17048" transform="translate(21.92)">
            <g id="Group_17044" data-name="Group 17044">
              <path id="Path_21707" data-name="Path 21707" d="M-526.362,128.459a4.2,4.2,0,0,1-1.556-.28,3.609,3.609,0,0,1-1.235-.79,3.7,3.7,0,0,1-.818-1.2,3.776,3.776,0,0,1-.3-1.509,3.771,3.771,0,0,1,.3-1.509,3.666,3.666,0,0,1,.824-1.2,3.685,3.685,0,0,1,1.24-.793,4.2,4.2,0,0,1,1.556-.28,4.219,4.219,0,0,1,1.579.291,3.242,3.242,0,0,1,1.229.86l-.687.666a2.737,2.737,0,0,0-.95-.66,2.942,2.942,0,0,0-1.129-.216,3.111,3.111,0,0,0-1.156.21,2.777,2.777,0,0,0-.924.592,2.629,2.629,0,0,0-.607.9,2.922,2.922,0,0,0-.217,1.134,2.932,2.932,0,0,0,.217,1.134,2.642,2.642,0,0,0,.607.9,2.753,2.753,0,0,0,.924.591,3.085,3.085,0,0,0,1.156.212,2.943,2.943,0,0,0,1.129-.217,2.661,2.661,0,0,0,.95-.67l.687.666a3.3,3.3,0,0,1-1.229.865A4.173,4.173,0,0,1-526.362,128.459Z" transform="translate(530.267 -120.901)" fill="#be8500"/>
              <path id="Path_21708" data-name="Path 21708" d="M-523.894,128.354v-7.39h1.055v6.47h4v.92Z" transform="translate(532.429 -120.88)" fill="#be8500"/>
              <path id="Path_21709" data-name="Path 21709" d="M-518.987,128.354v-7.39h1.057v7.39Z" transform="translate(534.094 -120.88)" fill="#be8500"/>
              <path id="Path_21710" data-name="Path 21710" d="M-516.319,128.354v-7.39h.866l4.887,6.07h-.454v-6.07h1.057v7.39h-.866l-4.887-6.071h.454v6.071Z" transform="translate(534.999 -120.88)" fill="#be8500"/>
              <path id="Path_21711" data-name="Path 21711" d="M-509.693,128.354v-7.39h1.057v7.39Z" transform="translate(537.247 -120.88)" fill="#be8500"/>
              <path id="Path_21712" data-name="Path 21712" d="M-503.569,128.459a4.2,4.2,0,0,1-1.556-.28,3.609,3.609,0,0,1-1.235-.79,3.7,3.7,0,0,1-.818-1.2,3.773,3.773,0,0,1-.3-1.509,3.769,3.769,0,0,1,.3-1.509,3.664,3.664,0,0,1,.824-1.2,3.7,3.7,0,0,1,1.24-.793,4.2,4.2,0,0,1,1.556-.28,4.214,4.214,0,0,1,1.579.291,3.231,3.231,0,0,1,1.229.86l-.687.666a2.736,2.736,0,0,0-.949-.66,2.942,2.942,0,0,0-1.129-.216,3.112,3.112,0,0,0-1.156.21,2.776,2.776,0,0,0-.924.592,2.648,2.648,0,0,0-.607.9,2.922,2.922,0,0,0-.216,1.134,2.931,2.931,0,0,0,.216,1.134,2.661,2.661,0,0,0,.607.9,2.753,2.753,0,0,0,.924.591,3.085,3.085,0,0,0,1.156.212,2.943,2.943,0,0,0,1.129-.217,2.66,2.66,0,0,0,.949-.67l.687.666a3.289,3.289,0,0,1-1.229.865A4.168,4.168,0,0,1-503.569,128.459Z" transform="translate(538 -120.901)" fill="#be8500"/>
            </g>
            <g id="Group_17045" data-name="Group 17045" transform="translate(42.679)">
              <path id="Path_21713" data-name="Path 21713" d="M-497.343,128.354H-498.4v-7.39h5.215v.919h-4.159Zm-.106-3.9h3.81v.907h-3.81Z" transform="translate(498.4 -120.88)" fill="#be8500"/>
              <path id="Path_21714" data-name="Path 21714" d="M-489.745,128.459a4.232,4.232,0,0,1-1.567-.284,3.771,3.771,0,0,1-1.251-.8,3.669,3.669,0,0,1-.824-1.2,3.755,3.755,0,0,1-.3-1.5,3.757,3.757,0,0,1,.3-1.5,3.678,3.678,0,0,1,.824-1.2,3.753,3.753,0,0,1,1.246-.8,4.247,4.247,0,0,1,1.572-.285,4.2,4.2,0,0,1,1.558.28,3.748,3.748,0,0,1,1.246.793,3.585,3.585,0,0,1,.824,1.2,3.839,3.839,0,0,1,.289,1.509,3.844,3.844,0,0,1-.289,1.509,3.59,3.59,0,0,1-.824,1.2,3.72,3.72,0,0,1-1.246.79A4.205,4.205,0,0,1-489.745,128.459Zm0-.939a2.986,2.986,0,0,0,1.136-.212,2.69,2.69,0,0,0,.907-.6,2.78,2.78,0,0,0,.6-.9,2.915,2.915,0,0,0,.217-1.129,2.922,2.922,0,0,0-.217-1.13,2.808,2.808,0,0,0-.6-.9,2.71,2.71,0,0,0-.907-.6,3.011,3.011,0,0,0-1.136-.21,3.03,3.03,0,0,0-1.145.21,2.765,2.765,0,0,0-.913.6,2.774,2.774,0,0,0-.607.9,2.92,2.92,0,0,0-.216,1.13,2.914,2.914,0,0,0,.216,1.129,2.746,2.746,0,0,0,.607.9,2.744,2.744,0,0,0,.913.6A3,3,0,0,0-489.745,127.52Z" transform="translate(500.001 -120.901)" fill="#be8500"/>
              <path id="Path_21715" data-name="Path 21715" d="M-486.386,128.354v-7.39h2.882a4.084,4.084,0,0,1,1.657.305,2.356,2.356,0,0,1,1.055.887,2.526,2.526,0,0,1,.37,1.383,2.5,2.5,0,0,1-.37,1.378,2.354,2.354,0,0,1-1.055.881,4.04,4.04,0,0,1-1.657.305h-2.3l.475-.485v2.735Zm1.055-2.629-.475-.517h2.27a2.33,2.33,0,0,0,1.536-.439,1.514,1.514,0,0,0,.522-1.229,1.5,1.5,0,0,0-.522-1.224,2.36,2.36,0,0,0-1.536-.433h-2.27l.475-.528Zm3.885,2.629-1.879-2.683h1.129l1.9,2.683Z" transform="translate(502.476 -120.88)" fill="#be8500"/>
            </g>
            <g id="Group_17046" data-name="Group 17046" transform="translate(70.288)">
              <path id="Path_21716" data-name="Path 21716" d="M-474.956,128.459a5.074,5.074,0,0,1-1.615-.257,3.32,3.32,0,0,1-1.213-.671l.391-.824a3.432,3.432,0,0,0,1.076.612,3.883,3.883,0,0,0,1.362.244,3.1,3.1,0,0,0,1.046-.147,1.241,1.241,0,0,0,.591-.407.964.964,0,0,0,.19-.587.8.8,0,0,0-.248-.612,1.841,1.841,0,0,0-.644-.374,7.032,7.032,0,0,0-.871-.249q-.476-.1-.956-.248a4.3,4.3,0,0,1-.876-.363,1.824,1.824,0,0,1-.639-.6,1.75,1.75,0,0,1-.242-.966,1.941,1.941,0,0,1,.3-1.051,2.09,2.09,0,0,1,.928-.77,3.838,3.838,0,0,1,1.6-.291,4.936,4.936,0,0,1,1.276.169,3.581,3.581,0,0,1,1.1.485l-.348.845a3.46,3.46,0,0,0-1-.459,3.979,3.979,0,0,0-1.023-.142,2.815,2.815,0,0,0-1.025.158,1.255,1.255,0,0,0-.587.423,1,1,0,0,0-.185.591.812.812,0,0,0,.248.623,1.771,1.771,0,0,0,.646.37,8.581,8.581,0,0,0,.871.248q.474.111.955.249a4.077,4.077,0,0,1,.876.358,1.82,1.82,0,0,1,.639.592,1.7,1.7,0,0,1,.242.95,1.9,1.9,0,0,1-.305,1.039,2.121,2.121,0,0,1-.945.771A3.882,3.882,0,0,1-474.956,128.459Z" transform="translate(477.785 -120.901)" fill="#be8500"/>
              <path id="Path_21717" data-name="Path 21717" d="M-472.161,128.354v-7.39h1.055v7.39Zm.93-1.784-.054-1.288,4.192-4.318h1.2l-3.241,3.421-.591.654Zm4.307,1.784-3.029-3.526.707-.782,3.557,4.308Z" transform="translate(479.693 -120.88)" fill="#be8500"/>
              <path id="Path_21718" data-name="Path 21718" d="M-466.268,128.354v-7.39h1.055v7.39Z" transform="translate(481.693 -120.88)" fill="#be8500"/>
              <path id="Path_21719" data-name="Path 21719" d="M-463.6,128.354v-7.39h.867l4.887,6.07h-.454v-6.07h1.055v7.39h-.865L-463,122.283h.454v6.071Z" transform="translate(482.598 -120.88)" fill="#be8500"/>
            </g>
            <path id="Path_21720" data-name="Path 21720" d="M-452.215,128.453a3.419,3.419,0,0,1-1.33-.242,2.215,2.215,0,0,1-.919-.675,1.584,1.584,0,0,1-.338-1,1.89,1.89,0,0,1,.221-.908,2.668,2.668,0,0,1,.708-.8,8.1,8.1,0,0,1,1.276-.8,9.719,9.719,0,0,0,1.008-.591,1.988,1.988,0,0,0,.517-.481.864.864,0,0,0,.154-.492.755.755,0,0,0-.253-.585,1.067,1.067,0,0,0-.729-.228,1.125,1.125,0,0,0-.777.249.826.826,0,0,0-.28.648,1.1,1.1,0,0,0,.068.386,1.533,1.533,0,0,0,.255.413,7.761,7.761,0,0,0,.533.575l3.905,3.885-.57.675-4.148-4.128a5.6,5.6,0,0,1-.581-.659,2.159,2.159,0,0,1-.305-.565,1.677,1.677,0,0,1-.1-.559,1.536,1.536,0,0,1,.248-.872,1.633,1.633,0,0,1,.7-.581,2.508,2.508,0,0,1,1.051-.206,2.345,2.345,0,0,1,.97.186,1.462,1.462,0,0,1,.64.528,1.479,1.479,0,0,1,.226.829,1.537,1.537,0,0,1-.206.781,2.359,2.359,0,0,1-.66.7,8.685,8.685,0,0,1-1.224.729,6.511,6.511,0,0,0-.991.607,1.917,1.917,0,0,0-.513.556,1.208,1.208,0,0,0-.153.6.987.987,0,0,0,.2.617,1.327,1.327,0,0,0,.581.418,2.353,2.353,0,0,0,.871.147,2.646,2.646,0,0,0,1.278-.307,2.545,2.545,0,0,0,.956-.919,4.464,4.464,0,0,0,.564-1.52l.813.264a4.74,4.74,0,0,1-.723,1.805,3.48,3.48,0,0,1-1.262,1.13A3.6,3.6,0,0,1-452.215,128.453Z" transform="translate(555.871 -120.896)" fill="#be8500"/>
            <g id="Group_17047" data-name="Group 17047" transform="translate(113.107)">
              <path id="Path_21721" data-name="Path 21721" d="M-445.814,128.354v-7.39h1.057v6.47h4v.92Z" transform="translate(445.814 -120.88)" fill="#be8500"/>
              <path id="Path_21722" data-name="Path 21722" d="M-441.179,128.354l3.347-7.39h1.045l3.356,7.39h-1.108l-2.988-6.8h.422l-2.987,6.8Zm1.425-1.847.285-.846h4.159l.307.846Z" transform="translate(447.387 -120.88)" fill="#be8500"/>
              <path id="Path_21723" data-name="Path 21723" d="M-432.024,128.459a5.068,5.068,0,0,1-1.615-.257,3.31,3.31,0,0,1-1.213-.671l.39-.824a3.424,3.424,0,0,0,1.077.612,3.884,3.884,0,0,0,1.362.244,3.089,3.089,0,0,0,1.045-.147,1.245,1.245,0,0,0,.592-.407.972.972,0,0,0,.19-.587.8.8,0,0,0-.249-.612,1.822,1.822,0,0,0-.643-.374,7.055,7.055,0,0,0-.872-.249q-.474-.1-.955-.248a4.3,4.3,0,0,1-.876-.363,1.823,1.823,0,0,1-.639-.6,1.75,1.75,0,0,1-.244-.966,1.952,1.952,0,0,1,.3-1.051,2.094,2.094,0,0,1,.929-.77,3.827,3.827,0,0,1,1.6-.291,4.954,4.954,0,0,1,1.278.169,3.573,3.573,0,0,1,1.1.485l-.348.845a3.445,3.445,0,0,0-1-.459,3.963,3.963,0,0,0-1.023-.142,2.82,2.82,0,0,0-1.025.158,1.257,1.257,0,0,0-.585.423,1,1,0,0,0-.185.591.812.812,0,0,0,.248.623,1.776,1.776,0,0,0,.644.37,8.715,8.715,0,0,0,.872.248c.316.074.633.157.955.249a4.08,4.08,0,0,1,.876.358,1.821,1.821,0,0,1,.639.592,1.7,1.7,0,0,1,.242.95,1.888,1.888,0,0,1-.307,1.039,2.11,2.11,0,0,1-.944.771A3.89,3.89,0,0,1-432.024,128.459Z" transform="translate(449.533 -120.901)" fill="#be8500"/>
              <path id="Path_21724" data-name="Path 21724" d="M-428.175,127.434h4.308v.92h-5.363v-7.39h5.215v.919h-4.161Zm-.094-3.283h3.8v.9h-3.8Z" transform="translate(451.441 -120.88)" fill="#be8500"/>
              <path id="Path_21725" data-name="Path 21725" d="M-423.723,128.354v-7.39h2.882a4.084,4.084,0,0,1,1.657.305,2.364,2.364,0,0,1,1.055.887,2.526,2.526,0,0,1,.37,1.383,2.5,2.5,0,0,1-.37,1.378,2.362,2.362,0,0,1-1.055.881,4.039,4.039,0,0,1-1.657.305h-2.3l.474-.485v2.735Zm1.054-2.629-.474-.517h2.27a2.328,2.328,0,0,0,1.535-.439,1.515,1.515,0,0,0,.524-1.229,1.5,1.5,0,0,0-.524-1.224,2.359,2.359,0,0,0-1.535-.433h-2.27l.474-.528Zm3.885,2.629-1.879-2.683h1.129l1.9,2.683Z" transform="translate(453.309 -120.88)" fill="#be8500"/>
            </g>
          </g>
          <g id="Group_17051" data-name="Group 17051" transform="translate(0 3.283)">
            <g id="Group_17049" data-name="Group 17049" transform="translate(174.181)">
              <rect id="Rectangle_6045" data-name="Rectangle 6045" width="18.442" height="1.025" fill="#be8500"/>
            </g>
            <g id="Group_17050" data-name="Group 17050">
              <rect id="Rectangle_6046" data-name="Rectangle 6046" width="18.442" height="1.025" fill="#be8500"/>
            </g>
          </g>
        </g>
      </g>
      <g id="Group_17056" data-name="Group 17056" transform="translate(0 0.459)">
        <path id="Path_21726" data-name="Path 21726" d="M-565.723,116.831l-2.24-4.059-9.284-16.812a3.734,3.734,0,0,0-.544-.726,1.142,1.142,0,0,0-.839-.281,1.084,1.084,0,0,0-.8.281,3.577,3.577,0,0,0-.54.726L-593.791,120.9h4.109l10.454-23.673q.3-.708.6-.708t.6.708l3.061,6.87a21.873,21.873,0,0,1,1.846,6.254,12.226,12.226,0,0,1-.336,4.948,9.058,9.058,0,0,1-2.163,3.733,12.654,12.654,0,0,1-3.569,2.576,18.018,18.018,0,0,1-4.553,1.5,27.324,27.324,0,0,1-5.189.485,32.612,32.612,0,0,1-4.893-.376,33.176,33.176,0,0,1-4.78-1.079,27.723,27.723,0,0,1-4.367-1.755,20.622,20.622,0,0,1-3.679-2.372,13.85,13.85,0,0,1-2.707-2.912,8.869,8.869,0,0,1-1.419-3.415c-.223-.9.1-1.211.975-.934a15.243,15.243,0,0,0,4.44.671,13.569,13.569,0,0,0,3.863-.544,10.542,10.542,0,0,0,3.27-1.565,7.852,7.852,0,0,0,2.277-2.576,7.257,7.257,0,0,0,.857-3.569q0-4.367-1.905-6.53t-6.272-2.132a9.2,9.2,0,0,0-4.254.993,13.256,13.256,0,0,0-3.51,2.594,18.654,18.654,0,0,0-2.785,3.7,30.454,30.454,0,0,0-2.068,4.313,35.52,35.52,0,0,0-1.383,4.44,36.273,36.273,0,0,0-.793,4.6c-.155-.5-.291-1-.418-1.515a25.9,25.9,0,0,1-.748-6.2,25.9,25.9,0,0,1,13.5-22.744,28.017,28.017,0,0,0-15.084,24.862,27.906,27.906,0,0,0,2.349,11.242.308.308,0,0,0,.127.014,1.749,1.749,0,0,0,.621-.345,1.6,1.6,0,0,0,.563-1.342v-.635c0-.281.013-.558.022-.83a32.52,32.52,0,0,1,1.415-9.007,20.86,20.86,0,0,1,3.32-6.517,12.627,12.627,0,0,1,4.408-3.642,11.351,11.351,0,0,1,4.685-1.174,9.628,9.628,0,0,1,2.821.335,7.067,7.067,0,0,1,2.367,1.121,5.543,5.543,0,0,1,1.606,1.845,4.751,4.751,0,0,1,.526,2.558,4.275,4.275,0,0,1-.749,2.39,6.15,6.15,0,0,1-1.827,1.7,10.659,10.659,0,0,1-2.558,1.12,19.716,19.716,0,0,1-2.912.635,21.023,21.023,0,0,1-2.875.2,18.29,18.29,0,0,1-2.485-.15,2.13,2.13,0,0,0-1.7.377q-.652.518-.5,2.2a10.822,10.822,0,0,0,1.161,4.295,14.4,14.4,0,0,0,2.612,3.606,17.968,17.968,0,0,0,3.75,2.87,26.1,26.1,0,0,0,4.576,2.1,32.2,32.2,0,0,0,5.057,1.288,31.5,31.5,0,0,0,5.211.444,26.478,26.478,0,0,0,7.148-.952,15.373,15.373,0,0,0,5.827-2.966,11.766,11.766,0,0,0,3.528-5.1,13.475,13.475,0,0,0,.259-7.338l3.2,7.2,1.7,3.819h4.1Z" fill="#be8500"/>
        <g id="Group_17055" data-name="Group 17055">
          <path id="Path_21727" data-name="Path 21727" d="M-564.41,117.187a29.485,29.485,0,0,0-.459-15.614A28.847,28.847,0,0,0-586.861,81.8a28.366,28.366,0,0,0-15.024,1.226A27.759,27.759,0,0,1-569.6,95.369a27.267,27.267,0,0,1,3.186,18.515l1.948,3.528C-564.449,117.338-564.427,117.26-564.41,117.187Z" fill="#be8500"/>
          <g id="Group_17054" data-name="Group 17054">
            <path id="Path_21728" data-name="Path 21728" d="M-569.013,121.719a27.3,27.3,0,0,1-26.077,15.16,27.939,27.939,0,0,1-21.966-13.3,28.494,28.494,0,0,0,33.58,13.274,29.114,29.114,0,0,0,17.427-15.136Z" fill="#be8500"/>
          </g>
        </g>
      </g>
    </g>
  </g>
</svg>

